<svg width="1440" height="500" viewBox="0 0 1440 500" fill="none" xmlns="http://www.w3.org/2000/svg">
<path d="M367.352 373.5H228.752V146H262.352V341.65H367.352V373.5ZM553.016 146V177.85H430.516V241.55H543.216V273.4H430.516V341.65H553.016V373.5H396.916V146H553.016ZM794.598 373.5H655.998V146H689.598V341.65H794.598V373.5ZM1141.12 146C1159.78 146 1174.95 151.367 1186.62 162.1C1198.28 172.6 1204.12 186.483 1204.12 203.75C1204.12 215.65 1201.32 226.15 1195.72 235.25C1190.12 244.117 1182.53 250.767 1172.97 255.2C1185.8 259.633 1195.95 266.983 1203.42 277.25C1210.88 287.517 1214.62 299.65 1214.62 313.65C1214.62 331.617 1208.78 346.083 1197.12 357.05C1185.45 368.017 1170.28 373.5 1151.62 373.5H1034.37V146H1141.12ZM1136.92 175.75H1067.97V242.6H1136.92C1146.95 242.6 1154.77 239.567 1160.37 233.5C1166.2 227.2 1169.12 218.683 1169.12 207.95C1169.12 197.917 1166.2 190.1 1160.37 184.5C1154.77 178.667 1146.95 175.75 1136.92 175.75ZM1139.72 272.35H1067.97V343.75H1143.92C1154.88 343.75 1163.52 340.717 1169.82 334.65C1176.35 328.583 1179.62 320.3 1179.62 309.8C1179.62 298.133 1176 289.033 1168.77 282.5C1161.77 275.733 1152.08 272.35 1139.72 272.35Z" fill="#F1F1F1"/>
<path d="M869.463 379.2C825.963 372.9 819.063 323.7 819.063 260.7C819.063 198.3 825.963 149.1 869.463 142.8V150.9C843.063 163.8 841.563 199.2 841.563 260.7C841.563 322.5 843.063 371.1 869.463 371.1V379.2ZM900.365 369C888.665 369 882.965 355.2 882.965 324.9C882.965 297 887.165 282.9 888.365 278.1H918.365V240.3C918.365 222.3 916.265 216.3 909.065 216.3C900.065 216.3 897.365 224.7 897.365 232.5C897.365 244.8 902.765 256.5 910.265 269.1H889.565C878.765 203.4 895.265 195 911.765 195C935.165 195 939.965 215.7 939.965 246.3V369H918.365L932.165 315.9H929.165C918.365 357.3 913.565 369 900.365 369ZM894.365 318.9C894.365 337.2 902.765 339.9 906.065 339.9C913.565 339.9 918.365 326.4 918.365 315.9V289.5C905.765 291 894.365 300.9 894.365 318.9ZM953.535 371.1C979.935 371.1 981.435 322.5 981.435 260.7C981.435 199.2 979.935 163.8 953.535 150.9V142.8C997.035 149.1 1003.94 198.3 1003.94 260.7C1003.94 323.7 997.035 372.9 953.535 379.2V371.1Z" fill="#F1F1F1"/>
</svg>
