<svg width="1440" height="500" viewBox="0 0 1440 500" fill="none" xmlns="http://www.w3.org/2000/svg">
<path d="M334.328 373.5H195.728V146H229.328V341.65H334.328V373.5ZM519.992 146V177.85H397.492V241.55H510.192V273.4H397.492V341.65H519.992V373.5H363.892V146H519.992ZM761.574 373.5H622.974V146H656.574V341.65H761.574V373.5ZM966.685 314.076C945.639 262.08 966.685 193.99 1022.4 147.565C1027.97 169.23 1036.63 218.131 1013.11 267.651C1003.83 288.697 988.969 307.267 971.018 323.361C969.78 320.266 967.923 317.171 966.685 314.076ZM1022.4 147.565C940.068 158.088 886.834 189.038 857.122 210.084C848.456 216.893 834.219 226.797 821.22 239.177C811.935 222.464 802.031 208.227 805.745 194.609C811.935 169.849 857.741 146.946 1022.4 147.565ZM832.362 323.361C833.6 323.98 835.457 324.599 837.314 325.218C859.598 333.884 889.31 343.169 925.212 352.454C886.834 371.024 841.028 379.071 792.746 373.5C806.983 361.739 823.077 345.026 832.362 323.361ZM971.018 323.361C985.255 350.597 1008.78 366.072 1021.78 373.5C985.874 367.31 953.686 359.882 925.212 352.454C942.544 345.026 957.4 335.122 971.018 323.361ZM821.22 239.177C831.124 255.271 841.028 274.46 838.552 299.22C837.314 307.886 835.457 315.933 832.362 323.361C813.792 317.171 796.46 309.124 792.746 293.649C787.794 275.698 803.269 255.89 821.22 239.177ZM1174.14 146C1192.81 146 1207.97 151.367 1219.64 162.1C1231.31 172.6 1237.14 186.483 1237.14 203.75C1237.14 215.65 1234.34 226.15 1228.74 235.25C1223.14 244.117 1215.56 250.767 1205.99 255.2C1218.82 259.633 1228.97 266.983 1236.44 277.25C1243.91 287.517 1247.64 299.65 1247.64 313.65C1247.64 331.617 1241.81 346.083 1230.14 357.05C1218.47 368.017 1203.31 373.5 1184.64 373.5H1067.39V146H1174.14ZM1169.94 175.75H1100.99V242.6H1169.94C1179.97 242.6 1187.79 239.567 1193.39 233.5C1199.22 227.2 1202.14 218.683 1202.14 207.95C1202.14 197.917 1199.22 190.1 1193.39 184.5C1187.79 178.667 1179.97 175.75 1169.94 175.75ZM1172.74 272.35H1100.99V343.75H1176.94C1187.91 343.75 1196.54 340.717 1202.84 334.65C1209.37 328.583 1212.64 320.3 1212.64 309.8C1212.64 298.133 1209.02 289.033 1201.79 282.5C1194.79 275.733 1185.11 272.35 1172.74 272.35Z" fill="#F1F1F1"/>
</svg>
