<svg width="1440" height="500" viewBox="0 0 1440 500" fill="none" xmlns="http://www.w3.org/2000/svg">
<path d="M340.583 373.5H201.983V146H235.583V341.65H340.583V373.5ZM526.247 146V177.85H403.747V241.55H516.447V273.4H403.747V341.65H526.247V373.5H370.147V146H526.247ZM767.829 373.5H629.229V146H662.829V341.65H767.829V373.5ZM962.961 175.968C1046.66 227.676 1033.64 366.804 1033.64 366.804H988.629C988.629 366.804 984.165 324.768 955.893 290.916C947.337 342.624 912.741 373.5 868.845 373.5C826.437 373.5 787.377 343.368 787.377 297.612C787.377 250.368 820.857 222.096 877.401 222.096C961.101 222.096 994.953 290.544 997.557 295.38C990.489 250.368 973.749 220.608 946.221 203.496C911.997 182.292 863.265 180.432 803.373 180.432V148.44C868.473 148.44 921.669 150.3 962.961 175.968ZM868.845 341.508C883.725 341.508 925.017 333.696 925.761 265.992C911.625 258.18 895.257 254.46 877.401 254.46C838.713 254.46 819.369 268.968 819.369 297.612C819.369 319.188 837.597 341.508 868.845 341.508ZM1167.89 146C1186.55 146 1201.72 151.367 1213.39 162.1C1225.05 172.6 1230.89 186.483 1230.89 203.75C1230.89 215.65 1228.09 226.15 1222.49 235.25C1216.89 244.117 1209.3 250.767 1199.74 255.2C1212.57 259.633 1222.72 266.983 1230.19 277.25C1237.65 287.517 1241.39 299.65 1241.39 313.65C1241.39 331.617 1235.55 346.083 1223.89 357.05C1212.22 368.017 1197.05 373.5 1178.39 373.5H1061.14V146H1167.89ZM1163.69 175.75H1094.74V242.6H1163.69C1173.72 242.6 1181.54 239.567 1187.14 233.5C1192.97 227.2 1195.89 218.683 1195.89 207.95C1195.89 197.917 1192.97 190.1 1187.14 184.5C1181.54 178.667 1173.72 175.75 1163.69 175.75ZM1166.49 272.35H1094.74V343.75H1170.69C1181.65 343.75 1190.29 340.717 1196.59 334.65C1203.12 328.583 1206.39 320.3 1206.39 309.8C1206.39 298.133 1202.77 289.033 1195.54 282.5C1188.54 275.733 1178.85 272.35 1166.49 272.35Z" fill="#F1F1F1"/>
</svg>
