<svg width="1440" height="500" viewBox="0 0 1440 500" fill="none" xmlns="http://www.w3.org/2000/svg">
<path d="M332.318 373.5H193.718V146H227.318V341.65H332.318V373.5ZM517.982 146V177.85H395.482V241.55H508.182V273.4H395.482V341.65H517.982V373.5H361.882V146H517.982ZM759.564 373.5H620.964V146H654.564V341.65H759.564V373.5ZM1176.15 146C1194.82 146 1209.98 151.367 1221.65 162.1C1233.32 172.6 1239.15 186.483 1239.15 203.75C1239.15 215.65 1236.35 226.15 1230.75 235.25C1225.15 244.117 1217.57 250.767 1208 255.2C1220.83 259.633 1230.98 266.983 1238.45 277.25C1245.92 287.517 1249.65 299.65 1249.65 313.65C1249.65 331.617 1243.82 346.083 1232.15 357.05C1220.48 368.017 1205.32 373.5 1186.65 373.5H1069.4V146H1176.15ZM1171.95 175.75H1103V242.6H1171.95C1181.98 242.6 1189.8 239.567 1195.4 233.5C1201.23 227.2 1204.15 218.683 1204.15 207.95C1204.15 197.917 1201.23 190.1 1195.4 184.5C1189.8 178.667 1181.98 175.75 1171.95 175.75ZM1174.75 272.35H1103V343.75H1178.95C1189.92 343.75 1198.55 340.717 1204.85 334.65C1211.38 328.583 1214.65 320.3 1214.65 309.8C1214.65 298.133 1211.03 289.033 1203.8 282.5C1196.8 275.733 1187.12 272.35 1174.75 272.35Z" fill="#F1F1F1"/>
<path d="M798.601 252.304C806.353 251.62 813.421 251.164 820.717 250.48C844.657 247.744 868.141 242.5 889.117 229.504C909.865 217.192 921.037 198.724 923.317 174.556C923.545 173.644 923.545 172.504 923.545 171.592C923.089 168.172 920.125 166.576 917.161 168.856C915.793 169.996 914.425 171.82 913.969 173.644C909.181 198.268 892.309 211.72 869.965 219.244C854.005 224.488 837.589 227.224 820.945 227.68C813.649 227.908 806.353 227.68 798.829 227.68C798.601 222.436 798.145 216.736 798.145 211.036C797.917 194.62 798.145 178.432 798.145 162.016C798.145 161.788 797.917 160.876 798.145 159.736C798.601 155.404 801.109 152.44 801.793 151.528C806.353 146.284 813.421 145.828 814.789 145.6C880.225 146.056 945.889 146.284 1011.55 146.512C1012.46 146.512 1013.83 146.512 1015.2 146.74C1017.48 146.968 1020.67 147.424 1022.95 149.704C1024.78 151.528 1025.69 154.264 1025.92 157.912C1026.14 158.824 1025.92 159.964 1025.92 160.876C1025.92 226.996 1025.92 292.888 1025.92 358.78C1025.92 361.516 1025.46 364.252 1025 366.76C1024.32 371.092 1021.58 373.144 1017.48 373.6C1016.34 373.828 1015.43 373.6 1014.29 373.6C984.877 373.6 955.237 373.6 925.825 373.6C924.457 373.6 922.861 373.6 921.037 373.372C920.809 371.092 920.809 369.268 920.809 367.216C920.581 357.184 920.809 346.924 920.581 336.892C920.581 334.384 920.581 331.876 917.617 330.736C914.197 329.596 911.689 330.964 910.777 334.612C910.321 336.436 910.321 338.26 910.093 340.084C908.497 351.256 904.393 361.06 895.273 368.356C890.713 371.776 885.697 373.6 879.769 373.6C856.741 373.6 833.713 373.828 810.457 373.6C802.249 373.6 798.601 370.408 798.373 362.2C798.145 343.732 798.145 325.036 798.145 306.568C798.145 290.608 798.373 274.876 798.373 258.916C798.601 256.864 798.373 254.584 798.373 252.304H798.601ZM887.521 313.636C892.993 313.408 897.781 311.356 902.113 307.708C906.673 303.604 910.093 298.588 912.373 292.66C917.617 279.436 919.669 265.3 921.037 251.164C921.493 247.06 920.125 244.78 916.933 244.096C913.969 243.412 912.145 244.552 910.549 249.112C907.129 258.232 901.201 265.756 894.133 272.14C890.941 275.104 887.521 277.612 884.329 280.576C879.541 284.908 875.893 290.152 874.297 296.308C872.017 305.656 878.173 313.636 887.521 313.636Z" fill="#F1F1F1"/>
</svg>
