<svg width="1440" height="500" viewBox="0 0 1440 500" fill="none" xmlns="http://www.w3.org/2000/svg">
<path d="M346.86 373.5H208.26V146H241.86V341.65H346.86V373.5ZM532.524 146V177.85H410.024V241.55H522.724V273.4H410.024V341.65H532.524V373.5H376.424V146H532.524ZM774.106 373.5H635.506V146H669.106V341.65H774.106V373.5ZM1012.27 281.564H1034.91L1010.58 373.838H856.45C835.494 373.838 815.89 364.036 803.384 347.474C790.54 331.25 786.146 309.618 791.554 289.676L797.638 266.354C806.764 231.202 838.874 206.528 875.378 206.528H1006.18L993.002 256.552C991.65 262.636 992.664 268.72 996.72 273.79C1000.44 278.522 1006.18 281.564 1012.27 281.564ZM955.822 248.102C957.512 240.666 955.822 232.892 951.09 226.808C946.696 221.062 939.598 217.344 931.824 217.682H881.8C863.548 217.682 847.324 229.85 842.254 247.764C839.888 255.538 841.916 264.326 846.986 271.086C852.056 277.508 859.83 281.564 868.28 281.564H912.22C932.838 281.564 950.414 267.706 955.822 248.102ZM1161.61 146C1180.28 146 1195.44 151.367 1207.11 162.1C1218.78 172.6 1224.61 186.483 1224.61 203.75C1224.61 215.65 1221.81 226.15 1216.21 235.25C1210.61 244.117 1203.03 250.767 1193.46 255.2C1206.29 259.633 1216.44 266.983 1223.91 277.25C1231.38 287.517 1235.11 299.65 1235.11 313.65C1235.11 331.617 1229.28 346.083 1217.61 357.05C1205.94 368.017 1190.78 373.5 1172.11 373.5H1054.86V146H1161.61ZM1157.41 175.75H1088.46V242.6H1157.41C1167.44 242.6 1175.26 239.567 1180.86 233.5C1186.69 227.2 1189.61 218.683 1189.61 207.95C1189.61 197.917 1186.69 190.1 1180.86 184.5C1175.26 178.667 1167.44 175.75 1157.41 175.75ZM1160.21 272.35H1088.46V343.75H1164.41C1175.38 343.75 1184.01 340.717 1190.31 334.65C1196.84 328.583 1200.11 320.3 1200.11 309.8C1200.11 298.133 1196.49 289.033 1189.26 282.5C1182.26 275.733 1172.58 272.35 1160.21 272.35Z" fill="#F1F1F1"/>
</svg>
