<svg width="1440" height="500" viewBox="0 0 1440 500" fill="none" xmlns="http://www.w3.org/2000/svg">
<path d="M415.468 373.5H276.868V146H310.468V341.65H415.468V373.5ZM601.132 146V177.85H478.632V241.55H591.332V273.4H478.632V341.65H601.132V373.5H445.032V146H601.132ZM842.714 373.5H704.114V146H737.714V341.65H842.714V373.5ZM915.692 145.3H957.094V352.636L928.08 373.5V288.414H892.22V352.636L863.206 373.5V197.786L915.692 145.3ZM915.692 259.4H928.08V174.314H892.22V283.198L915.692 259.4ZM1093 146C1111.67 146 1126.83 151.367 1138.5 162.1C1150.17 172.6 1156 186.483 1156 203.75C1156 215.65 1153.2 226.15 1147.6 235.25C1142 244.117 1134.42 250.767 1124.85 255.2C1137.68 259.633 1147.83 266.983 1155.3 277.25C1162.77 287.517 1166.5 299.65 1166.5 313.65C1166.5 331.617 1160.67 346.083 1149 357.05C1137.33 368.017 1122.17 373.5 1103.5 373.5H986.251V146H1093ZM1088.8 175.75H1019.85V242.6H1088.8C1098.83 242.6 1106.65 239.567 1112.25 233.5C1118.08 227.2 1121 218.683 1121 207.95C1121 197.917 1118.08 190.1 1112.25 184.5C1106.65 178.667 1098.83 175.75 1088.8 175.75ZM1091.6 272.35H1019.85V343.75H1095.8C1106.77 343.75 1115.4 340.717 1121.7 334.65C1128.23 328.583 1131.5 320.3 1131.5 309.8C1131.5 298.133 1127.88 289.033 1120.65 282.5C1113.65 275.733 1103.97 272.35 1091.6 272.35Z" fill="#F1F1F1"/>
</svg>
