<svg width="1440" height="500" viewBox="0 0 1440 500" fill="none" xmlns="http://www.w3.org/2000/svg">
<path d="M437.42 373.5H298.82V146H332.42V341.65H437.42V373.5ZM623.084 146V177.85H500.584V241.55H613.284V273.4H500.584V341.65H623.084V373.5H466.984V146H623.084ZM864.666 373.5H726.066V146H759.666V341.65H864.666V373.5ZM1071.05 146C1089.72 146 1104.88 151.367 1116.55 162.1C1128.22 172.6 1134.05 186.483 1134.05 203.75C1134.05 215.65 1131.25 226.15 1125.65 235.25C1120.05 244.117 1112.47 250.767 1102.9 255.2C1115.73 259.633 1125.88 266.983 1133.35 277.25C1140.82 287.517 1144.55 299.65 1144.55 313.65C1144.55 331.617 1138.72 346.083 1127.05 357.05C1115.38 368.017 1100.22 373.5 1081.55 373.5H964.299V146H1071.05ZM1066.85 175.75H997.899V242.6H1066.85C1076.88 242.6 1084.7 239.567 1090.3 233.5C1096.13 227.2 1099.05 218.683 1099.05 207.95C1099.05 197.917 1096.13 190.1 1090.3 184.5C1084.7 178.667 1076.88 175.75 1066.85 175.75ZM1069.65 272.35H997.899V343.75H1073.85C1084.82 343.75 1093.45 340.717 1099.75 334.65C1106.28 328.583 1109.55 320.3 1109.55 309.8C1109.55 298.133 1105.93 289.033 1098.7 282.5C1091.7 275.733 1082.02 272.35 1069.65 272.35Z" fill="#F1F1F1"/>
<path d="M911.634 142.264C915.175 142.264 918.827 142.485 922.59 142.928C926.574 143.371 930.226 144.367 933.546 145.916C937.087 147.244 940.186 149.236 942.842 151.892C945.498 154.548 947.379 158.089 948.486 162.516V374H916.946V363.376C915.396 364.483 913.958 365.479 912.63 366.364C911.523 367.249 910.416 368.024 909.31 368.688C906.654 370.237 904.662 371.123 903.334 371.344C902.227 371.565 901.231 371.897 900.346 372.34C899.239 372.783 898.132 373.115 897.026 373.336C895.919 373.557 894.48 373.779 892.71 374C888.283 374 884.742 372.561 882.086 369.684C879.651 366.807 878.212 363.155 877.77 358.728V220.616C877.77 219.952 877.88 218.956 878.102 217.628C878.323 216.3 878.766 214.861 879.43 213.312C880.315 211.763 881.422 210.324 882.75 208.996C884.299 207.668 886.291 206.672 888.726 206.008C890.496 205.565 892.488 205.455 894.702 205.676C896.915 205.897 899.018 206.229 901.01 206.672C902.78 207.115 904.883 207.889 907.318 208.996C909.974 210.103 913.183 212.095 916.946 214.972V162.516C917.167 161.852 917.167 161.077 916.946 160.192C916.503 158.643 915.839 157.425 914.954 156.54C914.511 156.097 913.847 155.876 912.962 155.876C912.298 155.876 911.744 156.208 911.302 156.872C911.08 157.093 910.748 157.647 910.306 158.532C910.084 159.417 909.863 161.077 909.642 163.512C909.42 165.725 909.199 169.045 908.978 173.472C908.978 177.677 909.088 183.211 909.31 190.072H877.77V162.184C877.548 161.963 877.659 160.745 878.102 158.532C878.766 156.319 880.204 153.995 882.418 151.56C884.852 149.125 888.394 146.912 893.042 144.92C897.69 142.928 903.887 142.043 911.634 142.264ZM916.946 223.936C914.068 223.936 911.855 225.485 910.306 228.584C910.306 228.805 910.195 229.248 909.974 229.912C909.974 230.576 909.974 232.125 909.974 234.56C909.974 236.773 909.863 240.315 909.642 245.184C909.642 249.832 909.642 256.472 909.642 265.104C909.642 273.515 909.642 284.249 909.642 297.308C909.642 310.145 909.642 325.971 909.642 344.784C909.42 344.784 909.42 345.337 909.642 346.444C909.863 347.329 910.195 348.436 910.638 349.764C911.302 350.871 912.076 351.977 912.962 353.084C914.068 353.969 915.396 354.301 916.946 354.08V223.936Z" fill="#F1F1F1"/>
</svg>
