<svg width="1440" height="500" viewBox="0 0 1440 500" fill="none" xmlns="http://www.w3.org/2000/svg">
<path d="M332.488 373.5H193.888V146H227.488V341.65H332.488V373.5ZM518.153 146V177.85H395.653V241.55H508.353V273.4H395.653V341.65H518.153V373.5H362.053V146H518.153ZM759.735 373.5H621.135V146H654.735V341.65H759.735V373.5ZM837.599 294.05L927.899 291.95C947.849 291.6 961.149 287.75 963.249 269.9L978.299 146C980.749 126.75 971.299 114.5 956.599 117.3C941.899 120.1 929.299 146.7 924.049 157.55L881.699 244.35C870.499 267.45 850.899 272 837.949 272C817.299 272 800.499 254.85 800.499 233.15C800.499 218.1 810.999 204.45 827.099 191.5L897.449 135.5C927.899 111.35 940.499 102.25 963.249 102.25C984.249 102.25 998.599 117.3 1003.15 141.1L1035 309.45C1042.35 348.65 1030.45 378.75 994.399 378.75C965.699 378.75 952.049 360.55 952.049 339.2V321C952.049 301.75 941.899 299.3 929.649 309.8L895.349 339.2C879.249 352.85 853.349 378.75 824.649 378.75C804.349 378.75 781.599 367.2 781.599 334.3C781.599 306.3 806.799 294.75 837.599 294.05ZM1175.98 146C1194.65 146 1209.81 151.367 1221.48 162.1C1233.15 172.6 1238.98 186.483 1238.98 203.75C1238.98 215.65 1236.18 226.15 1230.58 235.25C1224.98 244.117 1217.4 250.767 1207.83 255.2C1220.66 259.633 1230.81 266.983 1238.28 277.25C1245.75 287.517 1249.48 299.65 1249.48 313.65C1249.48 331.617 1243.65 346.083 1231.98 357.05C1220.31 368.017 1205.15 373.5 1186.48 373.5H1069.23V146H1175.98ZM1171.78 175.75H1102.83V242.6H1171.78C1181.81 242.6 1189.63 239.567 1195.23 233.5C1201.06 227.2 1203.98 218.683 1203.98 207.95C1203.98 197.917 1201.06 190.1 1195.23 184.5C1189.63 178.667 1181.81 175.75 1171.78 175.75ZM1174.58 272.35H1102.83V343.75H1178.78C1189.75 343.75 1198.38 340.717 1204.68 334.65C1211.21 328.583 1214.48 320.3 1214.48 309.8C1214.48 298.133 1210.86 289.033 1203.63 282.5C1196.63 275.733 1186.95 272.35 1174.58 272.35Z" fill="#F1F1F1"/>
</svg>
