<svg width="1440" height="500" viewBox="0 0 1440 500" fill="none" xmlns="http://www.w3.org/2000/svg">
<path d="M371.341 373.5H232.741V146H266.341V341.65H371.341V373.5ZM557.005 146V177.85H434.505V241.55H547.205V273.4H434.505V341.65H557.005V373.5H400.905V146H557.005ZM798.587 373.5H659.987V146H693.587V341.65H798.587V373.5ZM899.231 370.4C901.091 370.4 902.021 369.47 902.021 367.61V278.02C902.021 273.37 905.431 269.03 911.011 269.03C916.591 269.03 920.001 273.37 920.001 278.02V367.61C920.001 369.47 920.931 370.4 922.791 370.4H986.341C987.581 370.4 988.511 369.78 988.821 368.54L995.021 349.32C996.881 343.12 998.121 336.61 998.121 330.1V153.71C998.121 148.13 993.781 144.41 988.511 145.03L924.341 151.54C921.551 151.85 919.071 153.71 918.451 156.5L898.921 215.4C897.991 218.19 894.891 219.12 892.721 218.19C890.551 217.26 889.311 214.78 890.241 212.3L900.781 180.37C901.401 178.2 902.021 176.03 902.021 174.17V156.81C902.021 154.95 900.781 153.71 899.231 154.02L826.381 161.77C824.521 162.08 823.901 162.7 823.901 164.25V367.61C823.901 369.47 824.831 370.4 826.381 370.4H899.231ZM820.801 367.61V164.25C820.801 161.46 822.971 158.98 825.761 158.67L898.611 150.92C902.021 150.61 905.121 153.4 905.121 156.81V174.17C905.121 176.65 904.501 178.82 903.881 180.99L893.341 213.54C892.721 214.47 893.031 214.78 893.961 215.09C894.891 215.71 895.511 215.4 895.821 214.16L915.351 155.26C916.591 151.85 920.311 148.75 924.341 148.44L987.891 141.93C995.021 141.31 1001.22 146.58 1001.22 153.71V330.1C1001.22 336.61 999.981 343.74 998.121 349.94L991.921 369.78C990.991 371.64 988.821 373.5 986.341 373.5H922.791C919.381 373.5 916.901 371.02 916.901 367.61V278.02C916.901 274.61 915.041 272.13 911.011 272.13C906.981 272.13 905.121 274.61 905.121 278.02V367.61C905.121 371.02 902.641 373.5 899.231 373.5H826.381C823.281 373.5 820.801 371.02 820.801 367.61ZM902.021 256.94V218.5C902.021 216.02 902.331 213.54 902.951 211.37L920.931 157.12C921.861 154.33 924.961 153.4 927.131 154.33C929.301 155.26 930.541 157.74 929.611 160.22L921.241 185.02C920.621 187.19 920.001 189.36 920.001 191.22V256.94C920.001 261.59 916.591 265.93 911.011 265.93C905.431 265.93 902.021 261.59 902.021 256.94ZM905.121 256.94C905.121 260.35 906.981 262.83 911.011 262.83C915.041 262.83 916.901 260.35 916.901 256.94V191.22C916.901 188.74 917.521 186.57 918.141 184.4L926.511 158.98C927.131 158.05 926.821 157.74 925.891 157.43C924.961 156.81 924.341 157.12 924.031 158.36L906.051 211.99C905.431 214.16 905.121 216.02 905.121 218.5V256.94ZM1137.13 146C1155.79 146 1170.96 151.367 1182.63 162.1C1194.29 172.6 1200.13 186.483 1200.13 203.75C1200.13 215.65 1197.33 226.15 1191.73 235.25C1186.13 244.117 1178.54 250.767 1168.98 255.2C1181.81 259.633 1191.96 266.983 1199.43 277.25C1206.89 287.517 1210.63 299.65 1210.63 313.65C1210.63 331.617 1204.79 346.083 1193.13 357.05C1181.46 368.017 1166.29 373.5 1147.63 373.5H1030.38V146H1137.13ZM1132.93 175.75H1063.98V242.6H1132.93C1142.96 242.6 1150.78 239.567 1156.38 233.5C1162.21 227.2 1165.13 218.683 1165.13 207.95C1165.13 197.917 1162.21 190.1 1156.38 184.5C1150.78 178.667 1142.96 175.75 1132.93 175.75ZM1135.73 272.35H1063.98V343.75H1139.93C1150.89 343.75 1159.53 340.717 1165.83 334.65C1172.36 328.583 1175.63 320.3 1175.63 309.8C1175.63 298.133 1172.01 289.033 1164.78 282.5C1157.78 275.733 1148.09 272.35 1135.73 272.35Z" fill="#F1F1F1"/>
</svg>
