<svg width="1440" height="500" viewBox="0 0 1440 500" fill="none" xmlns="http://www.w3.org/2000/svg">
<path d="M240.845 373.5H102.245V146H135.845V341.65H240.845V373.5ZM426.509 146V177.85H304.009V241.55H416.709V273.4H304.009V341.65H426.509V373.5H270.409V146H426.509ZM668.091 373.5H529.491V146H563.091V341.65H668.091V373.5ZM758.943 145.404H1063.07C1102.24 145.404 1135.65 178.812 1135.65 218.556V373.5H1068.83V299.772C1068.83 295.74 1065.38 292.86 1061.92 292.86H760.095C756.639 292.86 753.183 295.74 753.183 299.772V373.5H686.367V218.556C686.367 178.812 719.775 145.404 758.943 145.404ZM752.607 219.132C752.607 223.164 756.063 226.044 759.519 226.044H1062.5C1065.95 226.044 1069.41 223.164 1069.41 219.132C1069.41 215.1 1065.95 212.22 1062.5 212.22H759.519C756.063 212.22 752.607 215.1 752.607 219.132ZM1267.62 146C1286.29 146 1301.46 151.367 1313.12 162.1C1324.79 172.6 1330.62 186.483 1330.62 203.75C1330.62 215.65 1327.82 226.15 1322.22 235.25C1316.62 244.117 1309.04 250.767 1299.47 255.2C1312.31 259.633 1322.46 266.983 1329.92 277.25C1337.39 287.517 1341.12 299.65 1341.12 313.65C1341.12 331.617 1335.29 346.083 1323.62 357.05C1311.96 368.017 1296.79 373.5 1278.12 373.5H1160.87V146H1267.62ZM1263.42 175.75H1194.47V242.6H1263.42C1273.46 242.6 1281.27 239.567 1286.87 233.5C1292.71 227.2 1295.62 218.683 1295.62 207.95C1295.62 197.917 1292.71 190.1 1286.87 184.5C1281.27 178.667 1273.46 175.75 1263.42 175.75ZM1266.22 272.35H1194.47V343.75H1270.42C1281.39 343.75 1290.02 340.717 1296.32 334.65C1302.86 328.583 1306.12 320.3 1306.12 309.8C1306.12 298.133 1302.51 289.033 1295.27 282.5C1288.27 275.733 1278.59 272.35 1266.22 272.35Z" fill="#F1F1F1"/>
</svg>
