<svg width="1440" height="500" viewBox="0 0 1440 500" fill="none" xmlns="http://www.w3.org/2000/svg">
<path d="M344.149 373.5H205.549V146H239.149V341.65H344.149V373.5ZM529.813 146V177.85H407.313V241.55H520.013V273.4H407.313V341.65H529.813V373.5H373.713V146H529.813ZM771.395 373.5H632.795V146H666.395V341.65H771.395V373.5ZM842.609 191.1L888.209 145.5H979.409V191.1H842.609ZM842.609 191.1V282.3H865.409L911.009 236.7H979.409V191.1H1025.01V373.5H979.409V282.3H933.809L888.209 327.9H842.609V373.5H797.009V145.5H842.609V191.1ZM1164.32 146C1182.99 146 1198.15 151.367 1209.82 162.1C1221.49 172.6 1227.32 186.483 1227.32 203.75C1227.32 215.65 1224.52 226.15 1218.92 235.25C1213.32 244.117 1205.74 250.767 1196.17 255.2C1209 259.633 1219.15 266.983 1226.62 277.25C1234.09 287.517 1237.82 299.65 1237.82 313.65C1237.82 331.617 1231.99 346.083 1220.32 357.05C1208.65 368.017 1193.49 373.5 1174.82 373.5H1057.57V146H1164.32ZM1160.12 175.75H1091.17V242.6H1160.12C1170.15 242.6 1177.97 239.567 1183.57 233.5C1189.4 227.2 1192.32 218.683 1192.32 207.95C1192.32 197.917 1189.4 190.1 1183.57 184.5C1177.97 178.667 1170.15 175.75 1160.12 175.75ZM1162.92 272.35H1091.17V343.75H1167.12C1178.09 343.75 1186.72 340.717 1193.02 334.65C1199.55 328.583 1202.82 320.3 1202.82 309.8C1202.82 298.133 1199.2 289.033 1191.97 282.5C1184.97 275.733 1175.29 272.35 1162.92 272.35Z" fill="#F1F1F1"/>
</svg>
