<svg width="1440" height="500" viewBox="0 0 1440 500" fill="none" xmlns="http://www.w3.org/2000/svg">
<path d="M327.767 373.5H189.167V146H222.767V341.65H327.767V373.5ZM513.431 146V177.85H390.931V241.55H503.631V273.4H390.931V341.65H513.431V373.5H357.331V146H513.431ZM755.013 373.5H616.413V146H650.013V341.65H755.013V373.5ZM908.137 100.86C964.777 100.86 998.377 110.46 1007.98 127.74C1021.74 152.7 1008.62 181.18 1013.1 208.38C1019.82 250.3 1036.46 256.38 1045.42 285.18C1051.82 305.02 1053.1 322.3 1051.82 341.18C1049.9 367.42 1032.62 377.34 990.057 377.34C941.737 377.34 925.417 364.86 925.417 327.74C925.417 314.94 920.617 307.9 911.017 307.9C901.417 307.9 896.617 314.94 896.617 327.74C896.617 364.86 880.297 377.34 831.977 377.34C789.417 377.34 772.137 367.42 770.217 341.18C768.937 322.3 770.217 305.02 776.617 285.18C785.577 256.38 802.217 250.3 808.937 208.38C813.417 181.18 800.297 152.7 814.057 127.74C823.657 110.46 857.257 100.86 908.137 100.86ZM911.657 249.34C925.097 249.34 932.457 237.82 929.257 209.34C927.337 192.7 924.137 179.9 919.657 176.7C917.097 174.78 914.537 173.82 911.017 173.82C907.497 173.82 904.617 175.1 902.377 176.7C897.577 180.22 894.377 192.7 892.777 209.34C890.217 237.82 896.937 249.34 911.657 249.34ZM1180.7 146C1199.37 146 1214.54 151.367 1226.2 162.1C1237.87 172.6 1243.7 186.483 1243.7 203.75C1243.7 215.65 1240.9 226.15 1235.3 235.25C1229.7 244.117 1222.12 250.767 1212.55 255.2C1225.39 259.633 1235.54 266.983 1243 277.25C1250.47 287.517 1254.2 299.65 1254.2 313.65C1254.2 331.617 1248.37 346.083 1236.7 357.05C1225.04 368.017 1209.87 373.5 1191.2 373.5H1073.95V146H1180.7ZM1176.5 175.75H1107.55V242.6H1176.5C1186.54 242.6 1194.35 239.567 1199.95 233.5C1205.79 227.2 1208.7 218.683 1208.7 207.95C1208.7 197.917 1205.79 190.1 1199.95 184.5C1194.35 178.667 1186.54 175.75 1176.5 175.75ZM1179.3 272.35H1107.55V343.75H1183.5C1194.47 343.75 1203.1 340.717 1209.4 334.65C1215.94 328.583 1219.2 320.3 1219.2 309.8C1219.2 298.133 1215.59 289.033 1208.35 282.5C1201.35 275.733 1191.67 272.35 1179.3 272.35Z" fill="#F1F1F1"/>
</svg>
