<svg width="1440" height="500" viewBox="0 0 1440 500" fill="none" xmlns="http://www.w3.org/2000/svg">
<path d="M348.323 373.5H209.723V146H243.323V341.65H348.323V373.5ZM533.988 146V177.85H411.488V241.55H524.188V273.4H411.488V341.65H533.988V373.5H377.888V146H533.988ZM775.57 373.5H636.97V146H670.57V341.65H775.57V373.5ZM941.214 373.5V368.94H985.294L948.434 267.1C938.174 329.04 858.374 370.08 791.494 376.92C799.854 341.58 820.374 312.32 843.934 287.62C834.814 277.74 830.634 265.2 830.634 253.8C831.014 231.38 846.214 212.76 868.254 206.68L908.914 98.76H918.034L1018.35 368.94H1047.99V373.5H941.214ZM942.734 262.16C942.734 243.16 935.134 225.68 918.034 216.94C912.334 225.3 903.594 234.42 894.094 244.68C861.034 279.26 831.394 312.7 831.394 363.62C882.694 351.84 942.734 311.94 942.734 262.16ZM847.354 284.2C856.854 273.18 868.254 262.54 878.514 253.04C892.954 238.6 905.874 226.06 913.854 214.66C905.494 210.86 896.754 208.96 887.254 208.96C858.374 208.96 835.574 227.96 835.574 253.8C835.574 262.92 838.994 275.08 847.354 284.2ZM931.714 220.74L901.694 132.96L874.334 205.16C878.514 204.4 883.074 204.02 886.874 204.02C904.734 204.02 920.694 210.1 931.714 220.74ZM1160.15 146C1178.81 146 1193.98 151.367 1205.65 162.1C1217.31 172.6 1223.15 186.483 1223.15 203.75C1223.15 215.65 1220.35 226.15 1214.75 235.25C1209.15 244.117 1201.56 250.767 1192 255.2C1204.83 259.633 1214.98 266.983 1222.45 277.25C1229.91 287.517 1233.65 299.65 1233.65 313.65C1233.65 331.617 1227.81 346.083 1216.15 357.05C1204.48 368.017 1189.31 373.5 1170.65 373.5H1053.4V146H1160.15ZM1155.95 175.75H1087V242.6H1155.95C1165.98 242.6 1173.8 239.567 1179.4 233.5C1185.23 227.2 1188.15 218.683 1188.15 207.95C1188.15 197.917 1185.23 190.1 1179.4 184.5C1173.8 178.667 1165.98 175.75 1155.95 175.75ZM1158.75 272.35H1087V343.75H1162.95C1173.91 343.75 1182.55 340.717 1188.85 334.65C1195.38 328.583 1198.65 320.3 1198.65 309.8C1198.65 298.133 1195.03 289.033 1187.8 282.5C1180.8 275.733 1171.11 272.35 1158.75 272.35Z" fill="#F1F1F1"/>
</svg>
