<svg width="1440" height="500" viewBox="0 0 1440 500" fill="none" xmlns="http://www.w3.org/2000/svg">
<path d="M361.199 373.5H222.599V146H256.199V341.65H361.199V373.5ZM546.863 146V177.85H424.363V241.55H537.063V273.4H424.363V341.65H546.863V373.5H390.763V146H546.863ZM788.446 373.5H649.846V146H683.446V341.65H788.446V373.5ZM1012.61 373.5H976.21L956.96 317.85H865.26L846.36 373.5H809.61L891.86 146H930.71L1012.61 373.5ZM910.76 184.15L875.06 289.15H947.16L910.76 184.15ZM1147.27 146C1165.94 146 1181.1 151.367 1192.77 162.1C1204.44 172.6 1210.27 186.483 1210.27 203.75C1210.27 215.65 1207.47 226.15 1201.87 235.25C1196.27 244.117 1188.69 250.767 1179.12 255.2C1191.95 259.633 1202.1 266.983 1209.57 277.25C1217.04 287.517 1220.77 299.65 1220.77 313.65C1220.77 331.617 1214.94 346.083 1203.27 357.05C1191.6 368.017 1176.44 373.5 1157.77 373.5H1040.52V146H1147.27ZM1143.07 175.75H1074.12V242.6H1143.07C1153.1 242.6 1160.92 239.567 1166.52 233.5C1172.35 227.2 1175.27 218.683 1175.27 207.95C1175.27 197.917 1172.35 190.1 1166.52 184.5C1160.92 178.667 1153.1 175.75 1143.07 175.75ZM1145.87 272.35H1074.12V343.75H1150.07C1161.04 343.75 1169.67 340.717 1175.97 334.65C1182.5 328.583 1185.77 320.3 1185.77 309.8C1185.77 298.133 1182.15 289.033 1174.92 282.5C1167.92 275.733 1158.24 272.35 1145.87 272.35Z" fill="#F1F1F1"/>
</svg>
