<svg width="1440" height="500" viewBox="0 0 1440 500" fill="none" xmlns="http://www.w3.org/2000/svg">
<path d="M343.654 373.5H205.054V146H238.654V341.65H343.654V373.5ZM529.318 146V177.85H406.818V241.55H519.518V273.4H406.818V341.65H529.318V373.5H373.218V146H529.318ZM770.9 373.5H632.3V146H665.9V341.65H770.9V373.5ZM988.44 191.58H1024.82V373.5H979.344V291.636L970.248 282.54H852L842.904 291.636V373.5H797.424V191.58H833.808L842.904 182.484V146.1H979.344V182.484L988.44 191.58ZM979.344 237.06V191.58H842.904V273.444H870.192L906.576 237.06H979.344ZM1164.82 146C1183.48 146 1198.65 151.367 1210.32 162.1C1221.98 172.6 1227.82 186.483 1227.82 203.75C1227.82 215.65 1225.02 226.15 1219.42 235.25C1213.82 244.117 1206.23 250.767 1196.67 255.2C1209.5 259.633 1219.65 266.983 1227.12 277.25C1234.58 287.517 1238.32 299.65 1238.32 313.65C1238.32 331.617 1232.48 346.083 1220.82 357.05C1209.15 368.017 1193.98 373.5 1175.32 373.5H1058.07V146H1164.82ZM1160.62 175.75H1091.67V242.6H1160.62C1170.65 242.6 1178.47 239.567 1184.07 233.5C1189.9 227.2 1192.82 218.683 1192.82 207.95C1192.82 197.917 1189.9 190.1 1184.07 184.5C1178.47 178.667 1170.65 175.75 1160.62 175.75ZM1163.42 272.35H1091.67V343.75H1167.62C1178.58 343.75 1187.22 340.717 1193.52 334.65C1200.05 328.583 1203.32 320.3 1203.32 309.8C1203.32 298.133 1199.7 289.033 1192.47 282.5C1185.47 275.733 1175.78 272.35 1163.42 272.35Z" fill="#F1F1F1"/>
</svg>
