<svg width="1440" height="500" viewBox="0 0 1440 500" fill="none" xmlns="http://www.w3.org/2000/svg">
<path d="M385.638 373.5H247.038V146H280.638V341.65H385.638V373.5ZM571.302 146V177.85H448.802V241.55H561.502V273.4H448.802V341.65H571.302V373.5H415.202V146H571.302ZM812.884 373.5H674.284V146H707.884V341.65H812.884V373.5ZM979.648 198.5C983.848 198.5 987.348 202 987.348 206.2V362.65C987.348 368.6 982.448 373.5 976.498 373.5H925.748C923.648 373.5 921.898 371.75 921.898 369.65V362.3C921.898 361.25 920.848 360.9 919.798 361.25L906.498 369.65C902.298 372.45 897.398 373.5 892.498 373.5H845.598C839.648 373.5 834.748 368.6 834.748 362.65V319.6C834.748 316.1 836.498 312.6 839.648 310.5L897.398 274.45C899.148 273.4 901.248 272.7 903.348 272.7H911.048C916.998 272.7 921.898 267.8 921.898 261.85V254.5C921.898 252.4 920.148 250.65 918.048 250.65H842.448C838.598 250.65 835.448 247.85 834.748 244.35C834.748 243.65 834.748 243.3 834.748 242.6V206.2C834.748 202 838.248 198.5 842.448 198.5H979.648ZM921.898 330.1V300C921.898 294.05 916.998 289.15 911.048 289.15C905.098 289.15 900.198 294.05 900.198 300V330.1C900.198 332.9 901.248 335.7 903.348 337.8C905.098 339.55 907.898 340.95 911.048 340.95C916.998 340.95 921.898 336.05 921.898 330.1ZM1122.83 146C1141.5 146 1156.66 151.367 1168.33 162.1C1180 172.6 1185.83 186.483 1185.83 203.75C1185.83 215.65 1183.03 226.15 1177.43 235.25C1171.83 244.117 1164.25 250.767 1154.68 255.2C1167.51 259.633 1177.66 266.983 1185.13 277.25C1192.6 287.517 1196.33 299.65 1196.33 313.65C1196.33 331.617 1190.5 346.083 1178.83 357.05C1167.16 368.017 1152 373.5 1133.33 373.5H1016.08V146H1122.83ZM1118.63 175.75H1049.68V242.6H1118.63C1128.66 242.6 1136.48 239.567 1142.08 233.5C1147.91 227.2 1150.83 218.683 1150.83 207.95C1150.83 197.917 1147.91 190.1 1142.08 184.5C1136.48 178.667 1128.66 175.75 1118.63 175.75ZM1121.43 272.35H1049.68V343.75H1125.63C1136.6 343.75 1145.23 340.717 1151.53 334.65C1158.06 328.583 1161.33 320.3 1161.33 309.8C1161.33 298.133 1157.71 289.033 1150.48 282.5C1143.48 275.733 1133.8 272.35 1121.43 272.35Z" fill="#F1F1F1"/>
</svg>
