<svg width="1440" height="500" viewBox="0 0 1440 500" fill="none" xmlns="http://www.w3.org/2000/svg">
<path d="M343.685 373.5H205.085V146H238.685V341.65H343.685V373.5ZM529.349 146V177.85H406.849V241.55H519.549V273.4H406.849V341.65H529.349V373.5H373.249V146H529.349ZM770.931 373.5H632.331V146H665.931V341.65H770.931V373.5ZM1006.11 147.78C1001.17 179.32 969.635 274.7 960.135 311.18C949.875 351.84 952.155 372.36 963.555 375.4C990.155 382.62 1001.93 301.68 982.175 299.78C976.095 299.02 972.675 299.78 965.455 308.52L963.935 307C981.035 282.68 1014.47 257.22 1029.29 265.96C1065.01 287.24 1012.19 381.1 959.375 381.1C938.095 381.1 912.255 364.38 901.995 345L957.475 188.06H953.295C913.775 307.76 871.215 385.66 841.575 385.66C797.115 385.66 777.735 352.6 777.735 323.72C777.735 234.42 971.915 158.04 973.435 102.18C973.435 95.34 970.775 93.44 966.215 93.44C936.955 93.06 868.935 197.18 830.555 197.18C811.555 197.18 802.435 174 802.435 156.9C802.435 130.3 808.895 105.98 815.355 95.34L816.115 96.48C803.575 124.22 822.955 136.38 840.815 136.38C894.395 136.38 931.635 88.5 972.295 88.5C991.295 88.5 1012.57 104.84 1006.11 147.78ZM964.315 135.62L962.415 133.72C899.335 199.46 838.155 227.2 835.115 296.36C834.355 313.46 841.955 324.86 858.295 324.86C909.595 324.86 939.995 217.32 964.315 135.62ZM1164.78 146C1183.45 146 1198.62 151.367 1210.28 162.1C1221.95 172.6 1227.78 186.483 1227.78 203.75C1227.78 215.65 1224.98 226.15 1219.38 235.25C1213.78 244.117 1206.2 250.767 1196.63 255.2C1209.47 259.633 1219.62 266.983 1227.08 277.25C1234.55 287.517 1238.28 299.65 1238.28 313.65C1238.28 331.617 1232.45 346.083 1220.78 357.05C1209.12 368.017 1193.95 373.5 1175.28 373.5H1058.03V146H1164.78ZM1160.58 175.75H1091.63V242.6H1160.58C1170.62 242.6 1178.43 239.567 1184.03 233.5C1189.87 227.2 1192.78 218.683 1192.78 207.95C1192.78 197.917 1189.87 190.1 1184.03 184.5C1178.43 178.667 1170.62 175.75 1160.58 175.75ZM1163.38 272.35H1091.63V343.75H1167.58C1178.55 343.75 1187.18 340.717 1193.48 334.65C1200.02 328.583 1203.28 320.3 1203.28 309.8C1203.28 298.133 1199.67 289.033 1192.43 282.5C1185.43 275.733 1175.75 272.35 1163.38 272.35Z" fill="#F1F1F1"/>
</svg>
