<svg width="1440" height="500" viewBox="0 0 1440 500" fill="none" xmlns="http://www.w3.org/2000/svg">
<path d="M327.464 373.5H188.864V146H222.464V341.65H327.464V373.5ZM513.128 146V177.85H390.628V241.55H503.328V273.4H390.628V341.65H513.128V373.5H357.028V146H513.128ZM754.71 373.5H616.11V146H649.71V341.65H754.71V373.5ZM854.274 83.7L866.874 96.3L879.474 83.7H904.674L917.274 96.3H942.474L955.074 108.9H992.874L1005.47 121.5V134.1L1018.07 146.7H1030.67L1043.27 159.3V184.5L1030.67 197.1H1018.07V209.7L1030.67 222.3V247.5L1018.07 260.1V285.3L1030.67 297.9V348.3L1005.47 373.5H980.274L967.674 360.9V348.3L980.274 335.7L967.674 323.1V297.9L980.274 285.3H992.874L1005.47 272.7V260.1H992.874L980.274 247.5V234.9L967.674 247.5H942.474L929.874 234.9V222.3H904.674V234.9L892.074 247.5H866.874L854.274 234.9V209.7H829.074L816.474 197.1V209.7L829.074 222.3V247.5H854.274L866.874 260.1V285.3L854.274 297.9V323.1L866.874 335.7V360.9L854.274 373.5H816.474L803.874 360.9V335.7L816.474 323.1H829.074V297.9L816.474 285.3V260.1H791.274L778.674 247.5V222.3L791.274 209.7V184.5L778.674 171.9V146.7L791.274 134.1H816.474L829.074 146.7V134.1L816.474 121.5V96.3L829.074 83.7H854.274ZM955.074 121.5H942.474L929.874 108.9H917.274V121.5L904.674 134.1H879.474L866.874 121.5L854.274 134.1H841.674V159.3H854.274L866.874 171.9V197.1H892.074L904.674 209.7H980.274L992.874 197.1L980.274 184.5V159.3H967.674L955.074 146.7V121.5ZM1181 146C1199.67 146 1214.84 151.367 1226.5 162.1C1238.17 172.6 1244 186.483 1244 203.75C1244 215.65 1241.2 226.15 1235.6 235.25C1230 244.117 1222.42 250.767 1212.85 255.2C1225.69 259.633 1235.84 266.983 1243.3 277.25C1250.77 287.517 1254.5 299.65 1254.5 313.65C1254.5 331.617 1248.67 346.083 1237 357.05C1225.34 368.017 1210.17 373.5 1191.5 373.5H1074.25V146H1181ZM1176.8 175.75H1107.85V242.6H1176.8C1186.84 242.6 1194.65 239.567 1200.25 233.5C1206.09 227.2 1209 218.683 1209 207.95C1209 197.917 1206.09 190.1 1200.25 184.5C1194.65 178.667 1186.84 175.75 1176.8 175.75ZM1179.6 272.35H1107.85V343.75H1183.8C1194.77 343.75 1203.4 340.717 1209.7 334.65C1216.24 328.583 1219.5 320.3 1219.5 309.8C1219.5 298.133 1215.89 289.033 1208.65 282.5C1201.65 275.733 1191.97 272.35 1179.6 272.35Z" fill="#F1F1F1"/>
</svg>
