<svg width="1440" height="500" viewBox="0 0 1440 500" fill="none" xmlns="http://www.w3.org/2000/svg">
<path d="M314.662 373.5H176.062V146H209.662V341.65H314.662V373.5ZM500.326 146V177.85H377.826V241.55H490.526V273.4H377.826V341.65H500.326V373.5H344.226V146H500.326ZM741.908 373.5H603.308V146H636.908V341.65H741.908V373.5ZM1048.64 95.6V373.5H1019.26C1014.23 363.972 1008.41 354.576 1001.79 345.313C995.972 337.108 988.826 328.374 980.356 319.111C972.152 309.583 962.624 300.981 951.772 293.306C947.008 302.305 942.112 311.568 937.083 321.096C932.319 330.359 926.364 338.961 919.218 346.901C912.337 354.841 903.868 361.59 893.81 367.148C884.018 372.706 871.711 376.279 856.889 377.867C852.919 378.396 847.891 378.396 841.803 377.867C835.981 377.338 830.158 375.882 824.335 373.5C818.777 370.853 814.013 366.751 810.043 361.193C806.073 355.635 804.088 347.96 804.088 338.167C804.088 331.815 805.147 326.257 807.264 321.493C809.646 316.729 812.558 312.759 815.998 309.583C819.704 306.407 823.674 304.025 827.908 302.437C832.408 300.849 836.775 300.055 841.009 300.055C847.097 300.055 852.39 301.908 856.889 305.613C861.653 309.054 864.035 314.479 864.035 321.89C864.035 325.331 863.638 328.242 862.844 330.624C862.05 332.741 861.256 334.594 860.462 336.182C859.139 337.77 857.816 339.093 856.492 340.152H833.069V338.167C836.51 338.167 839.686 336.976 842.597 334.594C845.509 331.947 846.964 329.036 846.964 325.86C846.964 321.361 845.641 318.052 842.994 315.935C840.612 313.818 837.701 312.759 834.26 312.759C829.761 312.759 825.262 314.876 820.762 319.111C816.528 323.346 814.41 329.83 814.41 338.564C814.41 341.74 814.807 345.445 815.601 349.68C816.395 353.915 817.983 357.885 820.365 361.59C822.747 365.295 826.188 368.471 830.687 371.118C835.451 373.765 841.539 375.088 848.949 375.088C857.683 375.088 866.55 372.971 875.548 368.736C884.812 364.237 893.678 358.149 902.147 350.474C910.617 342.799 918.557 333.8 925.967 323.478C933.643 312.891 940.259 301.511 945.817 289.336C936.554 283.249 926.232 278.088 914.851 273.853C903.735 269.618 891.825 267.501 879.121 267.501C864.565 267.501 851.993 269.618 841.406 273.853C831.084 278.088 822.218 283.513 814.807 290.13C807.661 296.482 801.839 303.496 797.339 311.171C793.105 318.846 789.796 326.257 787.414 333.403C785.032 340.284 783.444 346.504 782.65 352.062C782.121 357.355 781.856 360.928 781.856 362.781C782.65 374.691 785.959 384.219 791.781 391.365C797.869 398.511 804.882 402.084 812.822 402.084C816.528 402.084 820.233 401.29 823.938 399.702C827.644 398.114 831.349 395.467 835.054 391.762H836.245V421.934C834.128 422.199 832.275 422.331 830.687 422.331C829.364 422.596 827.511 422.728 825.129 422.728C818.248 422.728 811.367 421.802 804.485 419.949C797.869 418.361 792.046 415.185 787.017 410.421C781.989 405.657 778.151 399.173 775.504 390.968C772.858 382.763 772.328 372.309 773.916 359.605C775.24 349.283 778.283 338.432 783.047 327.051C788.076 315.67 795.354 305.348 804.882 296.085C814.41 286.557 826.188 278.749 840.215 272.662C854.507 266.575 871.314 263.531 890.634 263.531C901.221 263.531 911.675 264.59 921.997 266.707C932.319 268.56 942.244 271.868 951.772 276.632C958.918 261.546 965.8 244.872 972.416 226.61C979.298 208.348 986.311 190.615 993.457 173.412C1000.6 156.209 1008.41 140.593 1016.88 126.566C1025.35 112.539 1035.01 102.217 1045.86 95.6H1048.64ZM957.33 279.411C971.093 286.822 983.4 295.556 994.251 305.613C1005.37 315.406 1014.37 324.537 1021.25 333.006H1022.04V153.562H1020.85C1014.5 159.914 1009.07 167.192 1004.57 175.397C1000.07 183.337 995.575 192.468 991.075 202.79C986.841 213.112 982.077 224.625 976.783 237.329C971.755 249.768 965.27 263.796 957.33 279.411ZM1193.81 146C1212.47 146 1227.64 151.367 1239.31 162.1C1250.97 172.6 1256.81 186.483 1256.81 203.75C1256.81 215.65 1254.01 226.15 1248.41 235.25C1242.81 244.117 1235.22 250.767 1225.66 255.2C1238.49 259.633 1248.64 266.983 1256.11 277.25C1263.57 287.517 1267.31 299.65 1267.31 313.65C1267.31 331.617 1261.47 346.083 1249.81 357.05C1238.14 368.017 1222.97 373.5 1204.31 373.5H1087.06V146H1193.81ZM1189.61 175.75H1120.66V242.6H1189.61C1199.64 242.6 1207.46 239.567 1213.06 233.5C1218.89 227.2 1221.81 218.683 1221.81 207.95C1221.81 197.917 1218.89 190.1 1213.06 184.5C1207.46 178.667 1199.64 175.75 1189.61 175.75ZM1192.41 272.35H1120.66V343.75H1196.61C1207.57 343.75 1216.21 340.717 1222.51 334.65C1229.04 328.583 1232.31 320.3 1232.31 309.8C1232.31 298.133 1228.69 289.033 1221.46 282.5C1214.46 275.733 1204.77 272.35 1192.41 272.35Z" fill="#F1F1F1"/>
</svg>
