<svg width="1440" height="500" viewBox="0 0 1440 500" fill="none" xmlns="http://www.w3.org/2000/svg">
<path d="M384.322 373.5H245.722V146H279.322V341.65H384.322V373.5ZM569.986 146V177.85H447.486V241.55H560.186V273.4H447.486V341.65H569.986V373.5H413.886V146H569.986ZM811.568 373.5H672.968V146H706.568V341.65H811.568V373.5ZM826.082 189.855C826.082 164.34 846.872 143.235 872.387 143.235H907.352V373.5H826.082V189.855ZM949.247 143.235C974.762 143.235 995.867 164.34 995.867 189.855V373.5H914.282V143.235H949.247ZM1124.15 146C1142.81 146 1157.98 151.367 1169.65 162.1C1181.31 172.6 1187.15 186.483 1187.15 203.75C1187.15 215.65 1184.35 226.15 1178.75 235.25C1173.15 244.117 1165.56 250.767 1156 255.2C1168.83 259.633 1178.98 266.983 1186.45 277.25C1193.91 287.517 1197.65 299.65 1197.65 313.65C1197.65 331.617 1191.81 346.083 1180.15 357.05C1168.48 368.017 1153.31 373.5 1134.65 373.5H1017.4V146H1124.15ZM1119.95 175.75H1051V242.6H1119.95C1129.98 242.6 1137.8 239.567 1143.4 233.5C1149.23 227.2 1152.15 218.683 1152.15 207.95C1152.15 197.917 1149.23 190.1 1143.4 184.5C1137.8 178.667 1129.98 175.75 1119.95 175.75ZM1122.75 272.35H1051V343.75H1126.95C1137.91 343.75 1146.55 340.717 1152.85 334.65C1159.38 328.583 1162.65 320.3 1162.65 309.8C1162.65 298.133 1159.03 289.033 1151.8 282.5C1144.8 275.733 1135.11 272.35 1122.75 272.35Z" fill="#F1F1F1"/>
</svg>
