<svg width="1440" height="500" viewBox="0 0 1440 500" fill="none" xmlns="http://www.w3.org/2000/svg">
<path d="M294.064 373.5H155.464V146H189.064V341.65H294.064V373.5ZM479.728 146V177.85H357.228V241.55H469.928V273.4H357.228V341.65H479.728V373.5H323.628V146H479.728ZM721.31 373.5H582.71V146H616.31V341.65H721.31V373.5ZM738.162 146.924H1083.51V373.5H975.714V254.724H845.962V265.7H964.738V373.5H738.162V146.924ZM1214.41 146C1233.07 146 1248.24 151.367 1259.91 162.1C1271.57 172.6 1277.41 186.483 1277.41 203.75C1277.41 215.65 1274.61 226.15 1269.01 235.25C1263.41 244.117 1255.82 250.767 1246.26 255.2C1259.09 259.633 1269.24 266.983 1276.71 277.25C1284.17 287.517 1287.91 299.65 1287.91 313.65C1287.91 331.617 1282.07 346.083 1270.41 357.05C1258.74 368.017 1243.57 373.5 1224.91 373.5H1107.66V146H1214.41ZM1210.21 175.75H1141.26V242.6H1210.21C1220.24 242.6 1228.06 239.567 1233.66 233.5C1239.49 227.2 1242.41 218.683 1242.41 207.95C1242.41 197.917 1239.49 190.1 1233.66 184.5C1228.06 178.667 1220.24 175.75 1210.21 175.75ZM1213.01 272.35H1141.26V343.75H1217.21C1228.17 343.75 1236.81 340.717 1243.11 334.65C1249.64 328.583 1252.91 320.3 1252.91 309.8C1252.91 298.133 1249.29 289.033 1242.06 282.5C1235.06 275.733 1225.37 272.35 1213.01 272.35Z" fill="#F1F1F1"/>
</svg>
